<!DOCTYPE svg PUBLIC "-//W3C//DTD SVG 1.1//EN" "http://www.w3.org/Graphics/SVG/1.1/DTD/svg11.dtd">
<!-- Uploaded to: SVG Repo, www.svgrepo.com, Transformed by: SVG Repo Mixer Tools -->
<svg fill="#c5c5c5" width="64px" height="64px" viewBox="0 0 24.00 24.00" xmlns="http://www.w3.org/2000/svg" stroke="#c5c5c5" stroke-width="0.00024000000000000003" transform="matrix(-1, 0, 0, -1, 0, 0)">
<g id="SVGRepo_bgCarrier" stroke-width="0"/>
<g id="SVGRepo_tracerCarrier" stroke-linecap="round" stroke-linejoin="round"/>
<g id="SVGRepo_iconCarrier"> <g data-name="Layer 2"> <g data-name="flip-2"> <rect width="24" height="24" transform="rotate(180 12 12)" opacity="0"/> <path d="M6.09 19h12l-1.3 1.29a1 1 0 0 0 1.42 1.42l3-3a1 1 0 0 0 0-1.42l-3-3a1 1 0 0 0-1.42 0 1 1 0 0 0 0 1.42l1.3 1.29h-12a1.56 1.56 0 0 1-1.59-1.53V13a1 1 0 0 0-2 0v2.47A3.56 3.56 0 0 0 6.09 19z"/> <path d="M5.79 9.71a1 1 0 1 0 1.42-1.42L5.91 7h12a1.56 1.56 0 0 1 1.59 1.53V11a1 1 0 0 0 2 0V8.53A3.56 3.56 0 0 0 17.91 5h-12l1.3-1.29a1 1 0 0 0 0-1.42 1 1 0 0 0-1.42 0l-3 3a1 1 0 0 0 0 1.42z"/> </g> </g> </g>
</svg>