<svg width="24" height="24" viewBox="0 0 24 24" fill="none" xmlns="http://www.w3.org/2000/svg">
<path d="M2.17882 18.3188L3.74069 15H11.2594L12.8213 18.3188H2.17882ZM2.17882 18.3188C2.09416 18.4988 1.94145 18.6378 1.7543 18.7052M2.17882 18.3188L1.7543 18.7052M0.750825 17.9644C0.755444 17.866 0.779398 17.7695 0.821318 17.6803L0.750825 17.9644ZM0.750825 17.9644C0.746206 18.0628 0.761012 18.1611 0.794398 18.2538M0.750825 17.9644L0.794398 18.2538M0.794398 18.2538C0.861823 18.4409 1.00083 18.5936 1.18085 18.6783M0.794398 18.2538L1.18085 18.6783M1.18085 18.6783C1.36087 18.763 1.56714 18.7726 1.7543 18.7052M1.18085 18.6783L1.7543 18.7052M8.12226 4.95692L8.12227 4.95694L14.1223 17.7069C14.1607 17.7886 14.1826 17.8771 14.1869 17.9673C14.1911 18.0575 14.1775 18.1476 14.1469 18.2326C14.1163 18.3175 14.0693 18.3956 14.0085 18.4624C13.9477 18.5292 13.8744 18.5833 13.7927 18.6217C13.711 18.6602 13.6225 18.6821 13.5323 18.6864C13.4421 18.6906 13.352 18.677 13.267 18.6464C13.1821 18.6158 13.104 18.5688 13.0372 18.508C12.9704 18.4472 12.9163 18.3739 12.8779 18.2922L12.8779 18.2922L11.316 14.9734L11.2991 14.9375H11.2594H3.74069H3.70103L3.68414 14.9734L2.12227 18.2922L2.12226 18.2922C2.04465 18.4572 1.90467 18.5846 1.73311 18.6464C1.56155 18.7082 1.37246 18.6993 1.20745 18.6217C1.04243 18.5441 0.915005 18.4042 0.853198 18.2326C0.822595 18.1476 0.809022 18.0575 0.813256 17.9673C0.81749 17.8771 0.839446 17.7886 0.877869 17.7069C0.877871 17.7069 0.877874 17.7069 0.877876 17.7069L6.87787 4.95694L6.87788 4.95692C6.9334 4.83881 7.02139 4.73894 7.13157 4.66899C7.24175 4.59904 7.36956 4.56189 7.50007 4.56189C7.63058 4.56189 7.75839 4.59904 7.86857 4.66899C7.97874 4.73894 8.06674 4.83881 8.12226 4.95692ZM4.39008 13.4734L4.34814 13.5625H4.44663H10.5535H10.652L10.6101 13.4734L7.55662 6.98497L7.50007 6.8648L7.44352 6.98497L4.39008 13.4734ZM20.9653 12.7288L21.0626 12.7939V12.6769V12.375C21.0626 11.2991 20.0138 10.4375 18.7501 10.4375C17.9584 10.4375 17.3576 10.6178 16.9844 10.9876C16.854 11.1102 16.6808 11.1772 16.5018 11.1741C16.3225 11.1711 16.1515 11.0981 16.0252 10.9707C15.899 10.8433 15.8275 10.6717 15.826 10.4923C15.8246 10.3133 15.893 10.1407 16.0168 10.0113C16.6487 9.38442 17.5653 9.06252 18.7501 9.06252C20.79 9.06252 22.4376 10.5546 22.4376 12.375V18H22.4375L22.4376 18.0029C22.4462 18.1853 22.3819 18.3636 22.259 18.4986C22.1361 18.6336 21.9647 18.7142 21.7823 18.7227C21.5999 18.7313 21.4217 18.667 21.2867 18.5441C21.1517 18.4212 21.071 18.2498 21.0625 18.0674L21.0573 17.9566L20.9652 18.0184C20.3104 18.4579 19.5389 18.691 18.7503 18.6875H18.7501C16.7101 18.6875 15.0626 17.1954 15.0626 15.375C15.0626 13.5546 16.7101 12.0625 18.7501 12.0625L18.7504 12.0625C19.5387 12.0584 20.3101 12.2905 20.9653 12.7288ZM16.4376 15.375C16.4376 16.4509 17.4863 17.3125 18.7501 17.3125C20.0138 17.3125 21.0626 16.4509 21.0626 15.375C21.0626 14.2991 20.0138 13.4375 18.7501 13.4375C17.4863 13.4375 16.4376 14.2991 16.4376 15.375Z" fill="#C5C5C5" stroke="#C5C5C5" stroke-width="0.125"/>
</svg>
