<svg width="24" height="24" viewBox="0 0 24 24" fill="none" xmlns="http://www.w3.org/2000/svg">
<g clip-path="url(#clip0_3022_155)">
<path d="M12.0101 14.4C13.3501 14.4 14.4401 13.31 14.4401 11.97C14.4401 10.63 13.3501 9.54004 12.0101 9.54004C10.6701 9.54004 9.58008 10.63 9.58008 11.97C9.58008 13.31 10.6701 14.4 12.0101 14.4Z" stroke="#C5C5C5" stroke-width="1.5" stroke-miterlimit="10"/>
<path d="M14.13 4.64999C14.31 5.28999 14.73 5.83999 15.3 6.17999C15.87 6.51999 16.54 6.61999 17.18 6.45999C17.65 6.31999 18.16 6.34 18.62 6.53C19.08 6.72 19.46 7.05999 19.71 7.48999C19.96 7.91999 20.05 8.42999 19.98 8.92999C19.91 9.42999 19.67 9.88 19.31 10.22C18.85 10.7 18.59 11.35 18.59 12.02C18.59 12.69 18.85 13.34 19.31 13.82C19.67 14.16 19.9 14.62 19.98 15.11C20.05 15.61 19.96 16.11 19.71 16.55C19.46 16.98 19.08 17.32 18.62 17.51C18.16 17.7 17.66 17.72 17.18 17.58C16.54 17.42 15.8601 17.51 15.2801 17.85C14.7101 18.19 14.28 18.73 14.1 19.38C13.97 19.85 13.69 20.26 13.31 20.55C12.93 20.84 12.46 21 11.98 21C11.5 21 11.04 20.84 10.65 20.55C10.27 20.26 9.99001 19.85 9.86001 19.38C9.68001 18.73 9.25001 18.19 8.68001 17.85C8.11001 17.52 7.43005 17.42 6.78005 17.58C6.31005 17.72 5.8 17.69 5.35 17.5C4.89 17.31 4.51004 16.97 4.27004 16.54C4.03004 16.11 3.93003 15.6 4.01003 15.11C4.08003 14.62 4.32 14.16 4.67 13.82C5.13 13.34 5.39004 12.69 5.39004 12.02C5.39004 11.35 5.13 10.7 4.67 10.22C4.31 9.88 4.08003 9.41999 4.01003 8.92999C3.94003 8.43999 4.03004 7.93 4.27004 7.5C4.51004 7.07 4.89 6.73001 5.35 6.54001C5.81 6.35001 6.31005 6.31999 6.78005 6.45999C7.42005 6.61999 8.11001 6.52 8.68001 6.19C9.25001 5.85 9.68001 5.3 9.86001 4.66C9.98001 4.19 10.26 3.77 10.64 3.47C11.02 3.17 11.5 3.01001 11.98 3.01001C12.46 3.01001 12.94 3.17 13.32 3.47C13.7 3.77 13.98 4.19 14.1 4.66L14.13 4.64999Z" stroke="#C5C5C5" stroke-width="1.5" stroke-miterlimit="10" stroke-linecap="round"/>
</g>
<defs>
<clipPath id="clip0_3022_155">
<rect width="24" height="24" fill="white"/>
</clipPath>
</defs>
</svg>
